<svg width="1440" height="283" viewBox="0 0 1440 283" fill="none" xmlns="http://www.w3.org/2000/svg">
<g clip-path="url(#clip0_92_330)">
<path d="M-51 254.7L-40.6458 245.326C-30.2917 235.244 -9.58333 217.556 11.125 207.474C31.8333 198.1 52.5417 198.1 73.25 188.726C93.9583 178.644 114.667 160.956 135.375 136.724C156.083 113.2 176.792 84.9001 197.5 84.9001C218.208 84.9001 238.917 113.2 259.625 136.724C280.333 160.956 301.042 178.644 321.75 183.95C342.458 189.256 363.167 178.644 383.875 179.174C404.583 178.644 425.292 189.256 446 160.426C466.708 132.656 487.417 65.4438 508.125 37.6744C528.833 8.8438 549.542 19.4563 570.25 37.6744C590.958 56.6001 611.667 84.9001 632.375 122.574C653.083 160.956 673.792 206.944 694.5 212.25C715.208 217.556 735.917 178.644 756.625 169.8C777.333 160.956 798.042 178.644 818.75 165.024C839.458 150.344 860.167 104.356 880.875 89.6757C901.583 76.0563 922.292 93.7438 943 94.2744C963.708 93.7438 984.417 76.0563 1005.12 61.3757C1025.83 47.7563 1046.54 37.1438 1067.25 61.3757C1087.96 84.9001 1108.67 141.5 1129.38 150.874C1150.08 160.956 1170.79 122.044 1191.5 113.2C1212.21 104.356 1232.92 122.044 1253.63 150.874C1274.33 178.644 1295.04 217.556 1315.75 226.4C1336.46 235.244 1357.17 217.556 1377.88 207.474C1398.58 198.1 1419.29 198.1 1429.65 198.1H1440V283H1429.65C1419.29 283 1398.58 283 1377.88 283C1357.17 283 1336.46 283 1315.75 283C1295.04 283 1274.33 283 1253.63 283C1232.92 283 1212.21 283 1191.5 283C1170.79 283 1150.08 283 1129.38 283C1108.67 283 1087.96 283 1067.25 283C1046.54 283 1025.83 283 1005.12 283C984.417 283 963.708 283 943 283C922.292 283 901.583 283 880.875 283C860.167 283 839.458 283 818.75 283C798.042 283 777.333 283 756.625 283C735.917 283 715.208 283 694.5 283C673.792 283 653.083 283 632.375 283C611.667 283 590.958 283 570.25 283C549.542 283 528.833 283 508.125 283C487.417 283 466.708 283 446 283C425.292 283 404.583 283 383.875 283C363.167 283 342.458 283 321.75 283C301.042 283 280.333 283 259.625 283C238.917 283 218.208 283 197.5 283C176.792 283 156.083 283 135.375 283C114.667 283 93.9583 283 73.25 283C52.5417 283 31.8333 283 11.125 283C-9.58333 283 -30.2917 283 -40.6458 283H-51V254.7Z" fill="url(#paint0_linear_92_330)"/>
<path opacity="0.9" d="M-51 141.5L-40.6458 146.276C-30.2917 150.344 -9.58333 160.956 11.125 179.174C31.8333 198.1 52.5417 226.4 73.25 207.474C93.9583 189.256 114.667 122.044 135.375 103.826C156.083 84.9 176.792 113.2 197.5 146.276C218.208 178.644 238.917 217.556 259.625 207.474C280.333 198.1 301.042 141.5 321.75 113.2C342.458 84.9 363.167 84.9 383.875 94.2744C404.583 104.356 425.292 122.044 446 132.126C466.708 141.5 487.417 141.5 508.125 146.276C528.833 150.344 549.542 160.956 570.25 174.576C590.958 189.256 611.667 206.944 632.375 193.324C653.083 178.644 673.792 132.656 694.5 94.2744C715.208 56.6 735.917 28.3 756.625 42.45C777.333 56.6 798.042 113.2 818.75 113.2C839.458 113.2 860.167 56.6 880.875 70.75C901.583 84.9 922.292 169.8 943 188.726C963.708 206.944 984.417 160.956 1005.12 146.276C1025.83 132.656 1046.54 150.344 1067.25 141.5C1087.96 132.656 1108.67 93.7438 1129.38 108.424C1150.08 122.044 1170.79 189.256 1191.5 221.624C1212.21 254.7 1232.92 254.7 1253.63 231.176C1274.33 206.944 1295.04 160.956 1315.75 160.426C1336.46 160.956 1357.17 206.944 1377.88 217.026C1398.58 226.4 1419.29 198.1 1429.65 183.95L1440 169.8V283H1429.65C1419.29 283 1398.58 283 1377.88 283C1357.17 283 1336.46 283 1315.75 283C1295.04 283 1274.33 283 1253.63 283C1232.92 283 1212.21 283 1191.5 283C1170.79 283 1150.08 283 1129.38 283C1108.67 283 1087.96 283 1067.25 283C1046.54 283 1025.83 283 1005.12 283C984.417 283 963.708 283 943 283C922.292 283 901.583 283 880.875 283C860.167 283 839.458 283 818.75 283C798.042 283 777.333 283 756.625 283C735.917 283 715.208 283 694.5 283C673.792 283 653.083 283 632.375 283C611.667 283 590.958 283 570.25 283C549.542 283 528.833 283 508.125 283C487.417 283 466.708 283 446 283C425.292 283 404.583 283 383.875 283C363.167 283 342.458 283 321.75 283C301.042 283 280.333 283 259.625 283C238.917 283 218.208 283 197.5 283C176.792 283 156.083 283 135.375 283C114.667 283 93.9583 283 73.25 283C52.5417 283 31.8333 283 11.125 283C-9.58333 283 -30.2917 283 -40.6458 283H-51V141.5Z" fill="url(#paint1_linear_92_330)"/>
</g>
<defs>
<linearGradient id="paint0_linear_92_330" x1="-51" y1="283" x2="-51" y2="19.8121" gradientUnits="userSpaceOnUse">
<stop/>
<stop offset="1" stop-color="#EA3656"/>
</linearGradient>
<linearGradient id="paint1_linear_92_330" x1="-51" y1="283" x2="-51" y2="38.7422" gradientUnits="userSpaceOnUse">
<stop stop-color="#8C0820"/>
<stop offset="1" stop-color="#FF5674"/>
</linearGradient>
<clipPath id="clip0_92_330">
<rect width="1491" height="283" fill="white" transform="translate(-51)"/>
</clipPath>
</defs>
</svg>
