<?xml version="1.0" standalone="no"?>
<svg xmlns:xlink="http://www.w3.org/1999/xlink" id="wave" style="transform:rotate(0deg); transition: 0.3s" viewBox="0 0 1440 160" version="1.1" xmlns="http://www.w3.org/2000/svg"><defs><linearGradient id="sw-gradient-0" x1="0" x2="0" y1="1" y2="0"><stop stop-color="rgba(120.99, 21.56, 39.236, 1)" offset="0%"/><stop stop-color="rgba(234, 54, 86, 1)" offset="100%"/></linearGradient></defs><path style="transform:translate(0, 0px); opacity:1" fill="url(#sw-gradient-0)" d="M0,144L10,138.7C20,133,40,123,60,117.3C80,112,100,112,120,106.7C140,101,160,91,180,77.3C200,64,220,48,240,48C260,48,280,64,300,77.3C320,91,340,101,360,104C380,107,400,101,420,101.3C440,101,460,107,480,90.7C500,75,520,37,540,21.3C560,5,580,11,600,21.3C620,32,640,48,660,69.3C680,91,700,117,720,120C740,123,760,101,780,96C800,91,820,101,840,93.3C860,85,880,59,900,50.7C920,43,940,53,960,53.3C980,53,1000,43,1020,34.7C1040,27,1060,21,1080,34.7C1100,48,1120,80,1140,85.3C1160,91,1180,69,1200,64C1220,59,1240,69,1260,85.3C1280,101,1300,123,1320,128C1340,133,1360,123,1380,117.3C1400,112,1420,112,1430,112L1440,112L1440,160L1430,160C1420,160,1400,160,1380,160C1360,160,1340,160,1320,160C1300,160,1280,160,1260,160C1240,160,1220,160,1200,160C1180,160,1160,160,1140,160C1120,160,1100,160,1080,160C1060,160,1040,160,1020,160C1000,160,980,160,960,160C940,160,920,160,900,160C880,160,860,160,840,160C820,160,800,160,780,160C760,160,740,160,720,160C700,160,680,160,660,160C640,160,620,160,600,160C580,160,560,160,540,160C520,160,500,160,480,160C460,160,440,160,420,160C400,160,380,160,360,160C340,160,320,160,300,160C280,160,260,160,240,160C220,160,200,160,180,160C160,160,140,160,120,160C100,160,80,160,60,160C40,160,20,160,10,160L0,160Z"/><defs><linearGradient id="sw-gradient-1" x1="0" x2="0" y1="1" y2="0"><stop stop-color="rgba(150.588, 37.036, 57.223, 1)" offset="0%"/><stop stop-color="rgba(246.213, 0, 43.771, 1)" offset="100%"/></linearGradient></defs><path style="transform:translate(0, 50px); opacity:0.9" fill="url(#sw-gradient-1)" d="M0,80L10,82.7C20,85,40,91,60,101.3C80,112,100,128,120,117.3C140,107,160,69,180,58.7C200,48,220,64,240,82.7C260,101,280,123,300,117.3C320,112,340,80,360,64C380,48,400,48,420,53.3C440,59,460,69,480,74.7C500,80,520,80,540,82.7C560,85,580,91,600,98.7C620,107,640,117,660,109.3C680,101,700,75,720,53.3C740,32,760,16,780,24C800,32,820,64,840,64C860,64,880,32,900,40C920,48,940,96,960,106.7C980,117,1000,91,1020,82.7C1040,75,1060,85,1080,80C1100,75,1120,53,1140,61.3C1160,69,1180,107,1200,125.3C1220,144,1240,144,1260,130.7C1280,117,1300,91,1320,90.7C1340,91,1360,117,1380,122.7C1400,128,1420,112,1430,104L1440,96L1440,160L1430,160C1420,160,1400,160,1380,160C1360,160,1340,160,1320,160C1300,160,1280,160,1260,160C1240,160,1220,160,1200,160C1180,160,1160,160,1140,160C1120,160,1100,160,1080,160C1060,160,1040,160,1020,160C1000,160,980,160,960,160C940,160,920,160,900,160C880,160,860,160,840,160C820,160,800,160,780,160C760,160,740,160,720,160C700,160,680,160,660,160C640,160,620,160,600,160C580,160,560,160,540,160C520,160,500,160,480,160C460,160,440,160,420,160C400,160,380,160,360,160C340,160,320,160,300,160C280,160,260,160,240,160C220,160,200,160,180,160C160,160,140,160,120,160C100,160,80,160,60,160C40,160,20,160,10,160L0,160Z"/></svg>